<svg id="logo" xmlns="http://www.w3.org/2000/svg" viewBox="0 0 848.96 262.49">
  <title>Ansible_RH_AnsibleEngine_RGB_</title>
  <g>
    <path d="M345.2,70l-9.91-20.52h-6.78V70H311.9V9.14h27.21c14.26,0,23.73,5.39,23.73,19.82,0,9.13-4.26,14.78-11,17.82L364.06,70Zm-6.52-47.12H328.51v13.3h9.91c5.48,0,7.65-2.43,7.65-6.78C346.06,25.57,344,22.88,338.68,22.88Z"/>
    <path d="M376.75,70V9.14h46.59V23.31h-29.9V31.4h18v14h-18V55.82h30.51V70Z"/>
    <path d="M457.06,70H437.33V9.14h21.3c19.13,0,31.3,7.22,31.3,30.08S478.62,70,457.06,70Zm1.48-46.42h-4.17v32H458c10.52,0,14.61-4,14.61-16.08C472.62,28.27,469.06,23.57,458.54,23.57Z"/>
    <path d="M570.15,70V46h-19V70H534V9.14H551.2V31.31h19V9.14h17.21V70Z"/>
    <path d="M641.59,70l-3.3-10.69H620L616.73,70H598.65L620.73,9.14h17L659.85,70Zm-8.52-28.08c-2.18-7.83-3.13-11.13-3.91-15.21-.79,4.09-1.74,7.48-3.91,15.21l-1.13,4h10.08Z"/>
    <path d="M694.27,23.83V70H677.41V23.83h-17V9.14h50.94V23.83Z"/>
    <path d="M726.64,24.42a7.69,7.69,0,0,1-7.84-7.84,7.84,7.84,0,1,1,15.68,0A7.69,7.69,0,0,1,726.64,24.42Zm0-14.42a6.46,6.46,0,0,0-6.58,6.58,6.58,6.58,0,1,0,13.16,0A6.45,6.45,0,0,0,726.64,10Zm1.76,7.25,1.76,3.45h-1.72l-1.67-3.3h-1.65v3.3h-1.45V12.15h3.76a2.51,2.51,0,0,1,2.8,2.59A2.43,2.43,0,0,1,728.4,17.25Zm-1-3.69h-2.26V16h2.26c.78,0,1.37-.37,1.37-1.22A1.21,1.21,0,0,0,727.38,13.56Z"/>
    <path d="M370.7,178.64l-7.82-23.21H325.2l-8,23.21H306.82L338.5,87.39h11.21l31.68,91.26Zm-21-62.44c-2.09-6-4.69-14.21-5.61-18-.91,3.65-3.52,11.86-5.74,18.25l-10,29.72h31.42Z"/>
    <path d="M456.49,178.64,416.6,116.2c-2-3.13-5.35-9.13-6.52-11.47v73.92H400.3V87.39h9.91L449.71,151c2,3.13,5.34,9.13,6.52,11.47V87.39H466v91.26Z"/>
    <path d="M515.81,180.08a43.46,43.46,0,0,1-30.63-12.64l6.78-7.56c6.91,6.65,14.86,11,24.25,11,12.12,0,19.68-6,19.68-15.64,0-8.47-5.08-13.3-21.77-19.29-19.68-7-26.33-13.43-26.33-26.59,0-14.6,11.47-23.34,28.55-23.34,12.26,0,20.08,3.65,27.77,9.78l-6.52,8c-6.65-5.48-12.78-8.47-21.9-8.47-12.52,0-17.73,6.26-17.73,13.43,0,7.56,3.39,11.86,21.64,18.38,20.21,7.3,26.46,14.08,26.46,27.64C546.06,169,534.85,180.08,515.81,180.08Z"/>
    <path d="M567.84,178.64V87.39H578v91.26Z"/>
    <path d="M635.37,178.64H602.65V87.39H636c14.47,0,24.77,7.17,24.77,22.81,0,10-5.48,15.9-13.16,18.64,8.34,2.22,17.47,8.09,17.47,22.82C665.1,169.65,654.54,178.64,635.37,178.64Zm.26-82H612.82v28.42h22c11.34,0,15.77-6.52,15.77-14.47C650.62,102.25,645.8,96.64,635.63,96.64Zm-.13,37.55H612.82v35.2H636c13.69,0,18.9-6.78,18.9-17.21C654.93,140.71,647.37,134.19,635.5,134.19Z"/>
    <path d="M684.27,178.64V87.39h10.17v82h45.11v9.26Z"/>
    <path d="M759.24,178.64V87.39h55.15v9.26h-45v28.68h26.07v9.25H769.41v34.81h46.93v9.26Z"/>
    <path d="M832.86,102.83A7.84,7.84,0,1,1,840.7,95,7.69,7.69,0,0,1,832.86,102.83Zm0-14.42A6.58,6.58,0,1,0,839.44,95,6.46,6.46,0,0,0,832.86,88.41Zm1.76,7.25,1.76,3.45h-1.72L833,95.81h-1.65v3.3h-1.45V90.56h3.76a2.51,2.51,0,0,1,2.8,2.59A2.43,2.43,0,0,1,834.61,95.66Zm-1-3.69h-2.26V94.4h2.26c.78,0,1.37-.37,1.37-1.22A1.21,1.21,0,0,0,833.6,92Z"/>
    <path d="M311.9,243.84V198.19h29.41v6.65H318.75v11.28h13.11v6.65H318.75v14.41h23.54v6.65Z"/>
    <path d="M371.82,243.84V224.47c0-6.91-2.61-9.39-7-9.39s-7,3.19-7,8.74v20H351V209.6h6.72v3.26c1.69-2.48,5.09-4,8.61-4,8,0,12.2,5.22,12.2,15.33v19.63Z"/>
    <path d="M399.26,256.42,397,251.33c9.65-.46,11.74-3.06,11.74-10.17v-.59c-2.48,2.28-5.28,4-8.87,4-7.3,0-13.17-5.35-13.17-18.39,0-11.74,6.46-17.28,13.5-17.28a11.88,11.88,0,0,1,8.54,3.92v-3.2h6.72v31C415.43,251,411.65,256,399.26,256.42Zm9.59-36.84c-1.5-2-4.63-4.5-8-4.5-4.82,0-7.43,3.65-7.43,10.89,0,8.61,2.74,12.39,7.7,12.39,3.2,0,6-2.15,7.76-4.37Z"/>
    <path d="M429.05,205.16a4.34,4.34,0,1,1,4.3-4.3A4.36,4.36,0,0,1,429.05,205.16Zm-3.39,38.67V209.6h6.72v34.24Z"/>
    <path d="M463.41,243.84V224.47c0-6.91-2.61-9.39-7-9.39s-7,3.19-7,8.74v20h-6.72V209.6h6.72v3.26c1.69-2.48,5.09-4,8.61-4,8,0,12.2,5.22,12.2,15.33v19.63Z"/>
    <path d="M507.35,229.1H484.73c.72,6.59,4.43,9.39,8.61,9.39a12,12,0,0,0,7.43-2.74l4,4.3a15.92,15.92,0,0,1-11.8,4.5c-8,0-14.8-6.46-14.8-17.8,0-11.61,6.13-17.87,15-17.87,9.72,0,14.41,7.89,14.41,17.15C507.55,227.27,507.42,228.38,507.35,229.1Zm-14.67-14.15c-4.5,0-7.24,3.13-7.83,8.61h15.91C500.44,218.86,498.22,214.95,492.68,214.95Z"/>
  </g>
  <g>
    <circle cx="128.11" cy="126.84" r="122.41" fill="#c00"/>
    <path d="M186.44,175.4,137.72,58.13A7.86,7.86,0,0,0,130.17,53a8.13,8.13,0,0,0-7.76,5.17L68.93,186.76H87.23l21.17-53,63.18,51c2.54,2.05,4.37,3,6.76,3a8.74,8.74,0,0,0,8.95-8.74A11.58,11.58,0,0,0,186.44,175.4ZM130.17,79.2l31.68,78.18L114,119.7Z" fill="#fff"/>
  </g>
  <g>
    <path d="M345.2,70l-9.91-20.52h-6.78V70H311.9V9.14h27.21c14.26,0,23.73,5.39,23.73,19.82,0,9.13-4.26,14.78-11,17.82L364.06,70Zm-6.52-47.12H328.51v13.3h9.91c5.48,0,7.65-2.43,7.65-6.78C346.06,25.57,344,22.88,338.68,22.88Z"/>
    <path d="M376.75,70V9.14h46.59V23.31h-29.9V31.4h18v14h-18V55.82h30.51V70Z"/>
    <path d="M457.06,70H437.33V9.14h21.3c19.13,0,31.3,7.22,31.3,30.08S478.62,70,457.06,70Zm1.48-46.42h-4.17v32H458c10.52,0,14.61-4,14.61-16.08C472.62,28.27,469.06,23.57,458.54,23.57Z"/>
    <path d="M570.15,70V46h-19V70H534V9.14H551.2V31.31h19V9.14h17.21V70Z"/>
    <path d="M641.59,70l-3.3-10.69H620L616.73,70H598.65L620.73,9.14h17L659.85,70Zm-8.52-28.08c-2.18-7.83-3.13-11.13-3.91-15.21-.79,4.09-1.74,7.48-3.91,15.21l-1.13,4h10.08Z"/>
    <path d="M694.27,23.83V70H677.41V23.83h-17V9.14h50.94V23.83Z"/>
    <path d="M726.64,24.42a7.69,7.69,0,0,1-7.84-7.84,7.84,7.84,0,1,1,15.68,0A7.69,7.69,0,0,1,726.64,24.42Zm0-14.42a6.46,6.46,0,0,0-6.58,6.58,6.58,6.58,0,1,0,13.16,0A6.45,6.45,0,0,0,726.64,10Zm1.76,7.25,1.76,3.45h-1.72l-1.67-3.3h-1.65v3.3h-1.45V12.15h3.76a2.51,2.51,0,0,1,2.8,2.59A2.43,2.43,0,0,1,728.4,17.25Zm-1-3.69h-2.26V16h2.26c.78,0,1.37-.37,1.37-1.22A1.21,1.21,0,0,0,727.38,13.56Z"/>
    <path d="M370.7,178.64l-7.82-23.21H325.2l-8,23.21H306.82L338.5,87.39h11.21l31.68,91.26Zm-21-62.44c-2.09-6-4.69-14.21-5.61-18-.91,3.65-3.52,11.86-5.74,18.25l-10,29.72h31.42Z"/>
    <path d="M456.49,178.64,416.6,116.2c-2-3.13-5.35-9.13-6.52-11.47v73.92H400.3V87.39h9.91L449.71,151c2,3.13,5.34,9.13,6.52,11.47V87.39H466v91.26Z"/>
    <path d="M515.81,180.08a43.46,43.46,0,0,1-30.63-12.64l6.78-7.56c6.91,6.65,14.86,11,24.25,11,12.12,0,19.68-6,19.68-15.64,0-8.47-5.08-13.3-21.77-19.29-19.68-7-26.33-13.43-26.33-26.59,0-14.6,11.47-23.34,28.55-23.34,12.26,0,20.08,3.65,27.77,9.78l-6.52,8c-6.65-5.48-12.78-8.47-21.9-8.47-12.52,0-17.73,6.26-17.73,13.43,0,7.56,3.39,11.86,21.64,18.38,20.21,7.3,26.46,14.08,26.46,27.64C546.06,169,534.85,180.08,515.81,180.08Z"/>
    <path d="M567.84,178.64V87.39H578v91.26Z"/>
    <path d="M635.37,178.64H602.65V87.39H636c14.47,0,24.77,7.17,24.77,22.81,0,10-5.48,15.9-13.16,18.64,8.34,2.22,17.47,8.09,17.47,22.82C665.1,169.65,654.54,178.64,635.37,178.64Zm.26-82H612.82v28.42h22c11.34,0,15.77-6.52,15.77-14.47C650.62,102.25,645.8,96.64,635.63,96.64Zm-.13,37.55H612.82v35.2H636c13.69,0,18.9-6.78,18.9-17.21C654.93,140.71,647.37,134.19,635.5,134.19Z"/>
    <path d="M684.27,178.64V87.39h10.17v82h45.11v9.26Z"/>
    <path d="M759.24,178.64V87.39h55.15v9.26h-45v28.68h26.07v9.25H769.41v34.81h46.93v9.26Z"/>
    <path d="M832.86,102.83A7.84,7.84,0,1,1,840.7,95,7.69,7.69,0,0,1,832.86,102.83Zm0-14.42A6.58,6.58,0,1,0,839.44,95,6.46,6.46,0,0,0,832.86,88.41Zm1.76,7.25,1.76,3.45h-1.72L833,95.81h-1.65v3.3h-1.45V90.56h3.76a2.51,2.51,0,0,1,2.8,2.59A2.43,2.43,0,0,1,834.61,95.66Zm-1-3.69h-2.26V94.4h2.26c.78,0,1.37-.37,1.37-1.22A1.21,1.21,0,0,0,833.6,92Z"/>
    <path d="M311.9,243.84V198.19h29.41v6.65H318.75v11.28h13.11v6.65H318.75v14.41h23.54v6.65Z"/>
    <path d="M371.82,243.84V224.47c0-6.91-2.61-9.39-7-9.39s-7,3.19-7,8.74v20H351V209.6h6.72v3.26c1.69-2.48,5.09-4,8.61-4,8,0,12.2,5.22,12.2,15.33v19.63Z"/>
    <path d="M399.26,256.42,397,251.33c9.65-.46,11.74-3.06,11.74-10.17v-.59c-2.48,2.28-5.28,4-8.87,4-7.3,0-13.17-5.35-13.17-18.39,0-11.74,6.46-17.28,13.5-17.28a11.88,11.88,0,0,1,8.54,3.92v-3.2h6.72v31C415.43,251,411.65,256,399.26,256.42Zm9.59-36.84c-1.5-2-4.63-4.5-8-4.5-4.82,0-7.43,3.65-7.43,10.89,0,8.61,2.74,12.39,7.7,12.39,3.2,0,6-2.15,7.76-4.37Z"/>
    <path d="M429.05,205.16a4.34,4.34,0,1,1,4.3-4.3A4.36,4.36,0,0,1,429.05,205.16Zm-3.39,38.67V209.6h6.72v34.24Z"/>
    <path d="M463.41,243.84V224.47c0-6.91-2.61-9.39-7-9.39s-7,3.19-7,8.74v20h-6.72V209.6h6.72v3.26c1.69-2.48,5.09-4,8.61-4,8,0,12.2,5.22,12.2,15.33v19.63Z"/>
    <path d="M507.35,229.1H484.73c.72,6.59,4.43,9.39,8.61,9.39a12,12,0,0,0,7.43-2.74l4,4.3a15.92,15.92,0,0,1-11.8,4.5c-8,0-14.8-6.46-14.8-17.8,0-11.61,6.13-17.87,15-17.87,9.72,0,14.41,7.89,14.41,17.15C507.55,227.27,507.42,228.38,507.35,229.1Zm-14.67-14.15c-4.5,0-7.24,3.13-7.83,8.61h15.91C500.44,218.86,498.22,214.95,492.68,214.95Z"/>
  </g>
  <g>
    <circle cx="128.11" cy="126.84" r="122.41" fill="#c00"/>
    <path d="M186.44,175.4,137.72,58.13A7.86,7.86,0,0,0,130.17,53a8.13,8.13,0,0,0-7.76,5.17L68.93,186.76H87.23l21.17-53,63.18,51c2.54,2.05,4.37,3,6.76,3a8.74,8.74,0,0,0,8.95-8.74A11.58,11.58,0,0,0,186.44,175.4ZM130.17,79.2l31.68,78.18L114,119.7Z" fill="#fff"/>
  </g>
</svg>
